<svg width="179" height="41" viewBox="0 0 179 41" fill="none" xmlns="http://www.w3.org/2000/svg">
<path d="M52.9808 26.7737H47.2272V11.6176H44.3504V29.5001H54.8987C54.0996 28.7784 53.4603 27.8161 52.9808 26.7737Z" fill="#8124BB"/>
<path d="M54.4192 23.1656C54.4192 19.4768 57.296 16.5098 60.9719 16.5098C64.6478 16.5098 67.5246 19.4768 67.5246 23.1656C67.5246 23.5666 67.5246 24.0477 67.4446 24.4487H57.296C57.6955 26.2129 59.2938 27.2554 61.0518 27.2554C62.4103 27.2554 63.6888 26.694 64.5679 25.6515L66.4857 27.3356C62.3304 31.9866 54.4192 29.6611 54.4192 23.1656ZM64.5679 22.043C63.6089 18.1938 58.0152 18.1938 57.296 22.043H64.5679Z" fill="#8124BB"/>
<path d="M74.8764 29.8215C71.2804 29.8215 68.5634 26.7742 68.5634 23.2458C68.5634 19.7976 71.2804 16.59 74.8764 16.59C76.6344 16.59 78.0728 17.3919 79.1116 18.8353V16.8306H81.9085V28.1375C81.9085 32.3876 79.7509 35.1943 75.3558 35.1943C72.5589 35.1943 70.3214 33.831 69.0429 31.3451L71.4402 30.0621C72.1594 31.6659 73.5978 32.548 75.3558 32.548C78.1527 32.548 79.1116 30.6234 79.1915 28.0573V27.4959C78.0728 29.0196 76.6344 29.8215 74.8764 29.8215ZM75.2759 27.1752C77.5134 27.1752 79.1915 25.411 79.1915 23.1656C79.1915 20.9203 77.5134 19.1561 75.2759 19.1561C73.0384 19.1561 71.3603 21.0005 71.3603 23.1656C71.3603 25.411 73.0384 27.1752 75.2759 27.1752Z" fill="#8124BB"/>
<path d="M89.5799 29.8215C85.9839 29.8215 83.267 26.7742 83.267 23.2458C83.267 19.7976 85.9839 16.59 89.5799 16.59C91.3379 16.59 92.7763 17.3919 93.8152 18.8353V16.8306H96.6121V29.5809H93.8152V27.5761C92.7763 29.0196 91.3379 29.8215 89.5799 29.8215ZM90.0594 27.1752C92.2969 27.1752 93.975 25.411 93.975 23.1656C93.975 20.9203 92.2969 19.1561 90.0594 19.1561C87.8219 19.1561 86.1438 21.0005 86.1438 23.1656C86.0638 25.411 87.8219 27.1752 90.0594 27.1752Z" fill="#8124BB"/>
<path d="M99.2491 11.6176H102.046V29.5001H99.2491V11.6176Z" fill="#8124BB"/>
<path d="M110.117 27.095C111.475 27.095 113.953 26.5337 113.953 24.7695C113.953 20.9203 104.443 22.8449 104.443 16.4296C104.443 12.7408 108.039 11.3776 111.236 11.3776C112.914 11.3776 114.912 11.9389 116.51 12.6606L115.471 15.2267C114.192 14.6654 112.674 14.1842 111.236 14.1842C109.717 14.1842 107.4 14.505 107.4 16.5098C107.4 20.4391 116.909 18.4344 116.909 24.8496C116.909 28.4582 113.233 29.9017 110.117 29.9017C108.199 29.9017 106.201 29.18 104.443 28.4582L105.562 25.8921C106.921 26.4535 108.679 27.095 110.117 27.095Z" fill="#8124BB"/>
<path d="M121.624 18.9149C122.263 17.3111 123.702 16.5092 125.38 16.5092C128.736 16.5092 129.935 19.3961 129.935 22.3632V29.5001H127.298V22.3632C127.298 20.5188 126.419 19.0753 124.501 19.0753C122.583 19.0753 121.704 20.5188 121.704 22.3632V29.5001H118.907V11.6176H121.704V18.9149H121.624Z" fill="#8124BB"/>
<path d="M132.492 11.6176H135.289V14.8252H132.492V11.6176ZM132.492 16.7498H135.289V29.5001H132.492V16.7498Z" fill="#8124BB"/>
<path d="M137.207 23.1656C137.207 19.4768 140.083 16.5098 143.759 16.5098C147.435 16.5098 150.312 19.4768 150.312 23.1656C150.312 23.5666 150.312 24.0477 150.232 24.4487H140.083C140.483 26.2129 142.081 27.2554 143.839 27.2554C145.198 27.2554 146.476 26.694 147.355 25.6515L149.273 27.3356C145.118 31.9866 137.207 29.6611 137.207 23.1656ZM147.435 22.043C146.476 18.1938 140.883 18.1938 140.163 22.043H147.435Z" fill="#8124BB"/>
<path d="M151.99 11.6176H154.787V29.5001H151.99V11.6176Z" fill="#8124BB"/>
<path d="M162.459 29.8207C158.863 29.8207 156.146 26.7735 156.146 23.2451C156.146 19.7969 158.863 16.5892 162.459 16.5892C164.217 16.5892 165.655 17.3911 166.694 18.8346V11.6976H169.491V29.5801H166.694V27.5754C165.655 29.0188 164.217 29.8207 162.459 29.8207ZM162.938 27.1744C165.175 27.1744 166.854 25.4102 166.854 23.1649C166.854 20.9195 165.175 19.1553 162.938 19.1553C160.7 19.1553 159.022 20.9997 159.022 23.1649C158.942 25.4102 160.7 27.1744 162.938 27.1744Z" fill="#8124BB"/>
<path d="M33.7223 7.5284L33.083 7.20764C28.4482 5.04248 23.5737 4 18.4594 4C13.3451 4 8.39063 5.12267 3.83572 7.20764L3.19643 7.5284V8.57088C3.19643 19.8778 8.71027 30.5432 17.8201 37.1189L18.4594 37.6L19.0987 37.1189C28.2085 30.5432 33.7223 19.8778 33.7223 8.57088V7.5284ZM18.4594 34.8735V6.16516C23.0143 6.24535 27.4094 7.12745 31.5647 8.97184C31.4049 19.1561 26.5304 28.779 18.4594 34.8735Z" fill="#8124BB"/>
<path d="M173.726 12.3399H173.007V13.9437H172.687V12.3399H171.968V12.0191H173.966L174.765 12.9814L175.564 12.0191H175.804V14.0239H175.484V12.7408L174.765 13.6229L174.046 12.7408V14.0239H173.726V12.3399Z" fill="#8124BB"/>
</svg>
